<svg xmlns="http://www.w3.org/2000/svg" width="56.269" height="44.624" viewBox="0 0 56.269 44.624"><g transform="translate(-473.434 -1230)"><g transform="translate(504.883 1230)"><path d="M652.134,1345.014q-3.979,4.974-3.977,10.075a11.8,11.8,0,0,0,.519,3.719,10.532,10.532,0,0,1,6.572-2.335,11.306,11.306,0,0,1,8.086,3.07,11.86,11.86,0,0,1-.044,16.345,11.016,11.016,0,0,1-8.042,3.243,11.714,11.714,0,0,1-10.464-5.622,21.037,21.037,0,0,1-3.027-11.675,28.831,28.831,0,0,1,4.54-15.956q4.54-7.047,13.707-11.371l1.643,3.2A24.046,24.046,0,0,0,652.134,1345.014Z" transform="translate(-641.757 -1334.507)" fill="#4dceed"/></g><g transform="translate(473.434 1230)"><path d="M616.079,1345.014q-3.979,4.974-3.978,10.075a11.8,11.8,0,0,0,.519,3.719,10.534,10.534,0,0,1,6.572-2.335,11.3,11.3,0,0,1,8.086,3.07,11.861,11.861,0,0,1-.043,16.345,11.019,11.019,0,0,1-8.043,3.243,11.715,11.715,0,0,1-10.464-5.622,21.044,21.044,0,0,1-3.027-11.675,28.83,28.83,0,0,1,4.54-15.956q4.54-7.047,13.707-11.371l1.643,3.2A24.037,24.037,0,0,0,616.079,1345.014Z" transform="translate(-605.701 -1334.507)" fill="#4dceed"/></g></g></svg>